<svg width="38.000000" height="37.050659" viewBox="0 0 38 37.0507" fill="none" xmlns="http://www.w3.org/2000/svg" xmlns:xlink="http://www.w3.org/1999/xlink">
	<desc>
			Created with Pixso.
	</desc>
	<defs/>
	<path d="M12.71 29.83C12.71 29.98 12.53 30.1 12.31 30.1C12.05 30.13 11.88 30 11.88 29.83C11.88 29.67 12.05 29.55 12.28 29.55C12.51 29.53 12.71 29.65 12.71 29.83ZM10.32 29.48C10.27 29.64 10.42 29.81 10.65 29.86C10.85 29.94 11.08 29.86 11.13 29.71C11.17 29.55 11.03 29.38 10.8 29.31C10.6 29.25 10.38 29.33 10.32 29.48ZM13.71 29.35C13.49 29.41 13.33 29.55 13.36 29.73C13.38 29.88 13.58 29.98 13.81 29.93C14.03 29.87 14.18 29.73 14.16 29.58C14.14 29.43 13.93 29.33 13.71 29.35ZM18.75 0C8.12 0 0 8.06 0 18.69C0 27.18 5.34 34.46 12.98 37.01C13.96 37.19 14.31 36.59 14.31 36.09C14.31 35.61 14.28 32.99 14.28 31.38C14.28 31.38 8.92 32.53 7.79 29.1C7.79 29.1 6.92 26.87 5.66 26.3C5.66 26.3 3.91 25.09 5.79 25.12C5.79 25.12 7.69 25.27 8.74 27.09C10.42 30.05 13.23 29.2 14.33 28.69C14.51 27.47 15 26.62 15.56 26.11C11.27 25.64 6.95 25.02 6.95 17.65C6.95 15.54 7.53 14.48 8.76 13.13C8.56 12.64 7.91 10.58 8.96 7.93C10.56 7.43 14.25 10 14.25 10C15.78 9.57 17.42 9.35 19.06 9.35C20.69 9.35 22.34 9.57 23.87 10C23.87 10 27.55 7.43 29.15 7.93C30.2 10.59 29.55 12.64 29.35 13.13C30.58 14.49 31.33 15.55 31.33 17.65C31.33 25.04 26.82 25.63 22.53 26.11C23.24 26.72 23.84 27.87 23.84 29.67C23.84 32.25 23.81 35.44 23.81 36.07C23.81 36.57 24.17 37.18 25.14 37C32.8 34.46 38 27.18 38 18.69C38 8.06 29.38 0 18.75 0ZM7.44 26.42C7.34 26.5 7.37 26.67 7.5 26.82C7.62 26.94 7.79 26.99 7.89 26.89C7.99 26.82 7.97 26.64 7.84 26.5C7.72 26.37 7.54 26.32 7.44 26.42ZM6.61 25.8C6.56 25.9 6.64 26.02 6.79 26.1C6.91 26.17 7.07 26.15 7.12 26.04C7.17 25.94 7.1 25.82 6.94 25.74C6.79 25.7 6.67 25.72 6.61 25.8ZM9.1 28.53C8.97 28.63 9.02 28.86 9.2 29C9.37 29.18 9.59 29.2 9.69 29.08C9.79 28.98 9.75 28.75 9.59 28.6C9.43 28.43 9.2 28.4 9.1 28.53ZM8.22 27.4C8.1 27.48 8.1 27.68 8.22 27.85C8.35 28.03 8.55 28.1 8.65 28.03C8.77 27.93 8.77 27.73 8.65 27.55C8.54 27.38 8.35 27.3 8.22 27.4Z" fill="#FFFFFF" fill-opacity="1.000000" fill-rule="nonzero"/>
</svg>
