<svg width="24.000000" height="23.400391" viewBox="0 0 24 23.4004" fill="none" xmlns="http://www.w3.org/2000/svg" xmlns:xlink="http://www.w3.org/1999/xlink">
	<desc>
			Created with Pixso.
	</desc>
	<defs/>
	<path id="Vector" d="M8.02 18.84C8.02 18.93 7.91 19.01 7.77 19.01C7.61 19.03 7.5 18.95 7.5 18.84C7.5 18.74 7.61 18.66 7.75 18.66C7.9 18.65 8.02 18.73 8.02 18.84ZM6.52 18.62C6.48 18.72 6.58 18.83 6.73 18.86C6.85 18.9 7 18.86 7.03 18.76C7.05 18.66 6.96 18.55 6.82 18.51C6.69 18.47 6.55 18.52 6.52 18.62ZM8.66 18.54C8.52 18.57 8.42 18.66 8.43 18.77C8.45 18.87 8.57 18.93 8.72 18.9C8.86 18.87 8.96 18.77 8.94 18.68C8.93 18.59 8.8 18.52 8.66 18.54ZM11.84 0C5.13 0 0 5.09 0 11.8C0 17.17 3.37 21.76 8.2 23.38C8.82 23.49 9.03 23.1 9.03 22.79C9.03 22.49 9.02 20.84 9.02 19.82C9.02 19.82 5.63 20.55 4.92 18.38C4.92 18.38 4.37 16.97 3.58 16.61C3.58 16.61 2.47 15.85 3.65 15.86C3.65 15.86 4.86 15.96 5.52 17.11C6.58 18.98 8.36 18.44 9.05 18.12C9.16 17.35 9.47 16.81 9.82 16.49C7.12 16.19 4.39 15.8 4.39 11.14C4.39 9.81 4.76 9.15 5.53 8.29C5.4 7.98 4.99 6.68 5.66 5.01C6.67 4.69 9 6.31 9 6.31C9.96 6.04 11 5.9 12.03 5.9C13.06 5.9 14.1 6.04 15.07 6.31C15.07 6.31 17.4 4.69 18.41 5.01C19.07 6.69 18.66 7.98 18.54 8.29C19.31 9.15 19.79 9.82 19.79 11.14C19.79 15.81 16.94 16.19 14.23 16.49C14.68 16.87 15.05 17.6 15.05 18.74C15.05 20.37 15.04 22.38 15.04 22.78C15.04 23.1 15.26 23.48 15.88 23.37C20.71 21.76 24 17.17 24 11.8C24 5.09 18.55 0 11.84 0ZM4.7 16.68C4.64 16.73 4.65 16.84 4.73 16.94C4.81 17.01 4.92 17.05 4.98 16.98C5.05 16.94 5.03 16.82 4.95 16.73C4.87 16.65 4.76 16.62 4.7 16.68ZM4.18 16.29C4.14 16.35 4.19 16.43 4.29 16.48C4.36 16.53 4.46 16.51 4.5 16.45C4.53 16.38 4.48 16.31 4.38 16.26C4.29 16.23 4.21 16.24 4.18 16.29ZM5.74 18.01C5.67 18.08 5.7 18.22 5.81 18.31C5.92 18.43 6.06 18.44 6.12 18.36C6.18 18.3 6.15 18.15 6.06 18.06C5.95 17.95 5.81 17.94 5.74 18.01ZM5.19 17.3C5.11 17.35 5.11 17.48 5.19 17.59C5.27 17.7 5.4 17.75 5.46 17.7C5.54 17.64 5.54 17.51 5.46 17.4C5.39 17.29 5.27 17.24 5.19 17.3Z" fill="#000000" fill-opacity="1.000000" fill-rule="nonzero"/>
</svg>
