<svg width="38.000000" height="37.991577" viewBox="0 0 38 37.9916" fill="none" xmlns="http://www.w3.org/2000/svg" xmlns:xlink="http://www.w3.org/1999/xlink">
	<desc>
			Created with Pixso.
	</desc>
	<defs/>
	<path d="M19 9.25C13.61 9.25 9.26 13.6 9.26 18.99C9.26 24.38 13.61 28.73 19 28.73C24.39 28.73 28.74 24.38 28.74 18.99C28.74 13.6 24.39 9.25 19 9.25ZM19 25.32C15.52 25.32 12.67 22.48 12.67 18.99C12.67 15.5 15.51 12.66 19 12.66C22.49 12.66 25.33 15.5 25.33 18.99C25.33 22.48 22.48 25.32 19 25.32ZM31.41 8.85C31.41 10.11 30.39 11.12 29.14 11.12C27.87 11.12 26.87 10.11 26.87 8.85C26.87 7.6 27.88 6.58 29.14 6.58C30.39 6.58 31.41 7.6 31.41 8.85ZM37.86 11.16C37.72 8.11 37.02 5.42 34.79 3.2C32.57 0.98 29.88 0.28 26.83 0.13C23.7 -0.05 14.29 -0.05 11.16 0.13C8.12 0.27 5.43 0.97 3.2 3.19C0.97 5.41 0.28 8.11 0.13 11.15C-0.05 14.29 -0.05 23.69 0.13 26.82C0.27 29.87 0.97 32.56 3.2 34.78C5.43 37.01 8.11 37.7 11.16 37.85C14.29 38.03 23.7 38.03 26.83 37.85C29.88 37.71 32.57 37.01 34.79 34.78C37.01 32.56 37.71 29.87 37.86 26.82C38.04 23.69 38.04 14.29 37.86 11.16ZM33.81 30.19C33.15 31.85 31.87 33.13 30.2 33.8C27.7 34.79 21.76 34.56 19 34.56C16.24 34.56 10.29 34.78 7.8 33.8C6.14 33.14 4.86 31.86 4.19 30.19C3.2 27.69 3.43 21.75 3.43 18.99C3.43 16.23 3.21 10.28 4.19 7.79C4.85 6.13 6.13 4.85 7.8 4.18C10.3 3.19 16.24 3.42 19 3.42C21.76 3.42 27.71 3.2 30.2 4.18C31.86 4.84 33.14 6.12 33.81 7.79C34.8 10.29 34.57 16.23 34.57 18.99C34.57 21.75 34.8 27.7 33.81 30.19Z" fill="#FFFFFF" fill-opacity="1.000000" fill-rule="nonzero"/>
</svg>
