<svg width="38.000000" height="38.000000" viewBox="0 0 38 38" fill="none" xmlns="http://www.w3.org/2000/svg" xmlns:xlink="http://www.w3.org/1999/xlink">
	<desc>
			Created with Pixso.
	</desc>
	<defs/>
	<path d="M35.28 0L2.7 0C1.21 0 0 1.22 0 2.73L0 35.26C0 36.77 1.21 38 2.7 38L35.28 38C36.77 38 38 36.77 38 35.26L38 2.73C38 1.22 36.77 0 35.28 0ZM11.48 32.57L5.85 32.57L5.85 14.43L11.49 14.43L11.49 32.57L11.48 32.57ZM8.66 11.95C6.86 11.95 5.4 10.49 5.4 8.69C5.4 6.89 6.86 5.42 8.66 5.42C10.46 5.42 11.93 6.89 11.93 8.69C11.93 10.5 10.47 11.95 8.66 11.95ZM32.59 32.57L26.96 32.57L26.96 23.75C26.96 21.64 26.92 18.94 24.03 18.94C21.1 18.94 20.65 21.23 20.65 23.59L20.65 32.57L15.02 32.57L15.02 14.43L20.42 14.43L20.42 16.91L20.5 16.91C21.25 15.48 23.09 13.98 25.83 13.98C31.53 13.98 32.59 17.74 32.59 22.63L32.59 32.57Z" fill="#FFFFFF" fill-opacity="1.000000" fill-rule="nonzero"/>
</svg>
