<svg width="15.999023" height="16.000000" viewBox="0 0 15.999 16" fill="none" xmlns="http://www.w3.org/2000/svg" xmlns:xlink="http://www.w3.org/1999/xlink">
	<desc>
			Created with Pixso.
	</desc>
	<defs/>
	<path d="M6 0.27C6.09 0.39 6.15 0.54 6.17 0.69C6.18 0.84 6.15 1 6.08 1.13C5.5 2.19 5.2 3.38 5.2 4.59C5.2 8.61 8.48 11.87 12.52 11.87C13.04 11.87 13.56 11.81 14.05 11.71C14.2 11.68 14.36 11.69 14.5 11.74C14.65 11.8 14.77 11.9 14.86 12.02C14.95 12.16 15 12.31 15 12.48C14.99 12.64 14.93 12.79 14.83 12.92C14.04 13.88 13.05 14.66 11.93 15.19C10.81 15.72 9.58 16 8.34 16C3.73 16 0 12.28 0 7.7C0 4.26 2.11 1.31 5.12 0.05C5.27 -0.01 5.44 -0.02 5.59 0.02C5.75 0.06 5.89 0.15 6 0.27Z" fill="#000000" fill-opacity="1.000000" fill-rule="nonzero"/>
	<path d="M10.79 3.14C10.8 3.1 10.83 3.06 10.87 3.03C10.91 3.01 10.95 2.99 11 2.99C11.04 2.99 11.08 3.01 11.12 3.03C11.16 3.06 11.19 3.1 11.2 3.14L11.59 4.3C11.76 4.82 12.17 5.23 12.69 5.4L13.85 5.79C13.89 5.8 13.93 5.83 13.96 5.87C13.98 5.9 14 5.95 14 5.99C14 6.04 13.98 6.08 13.96 6.12C13.93 6.16 13.89 6.19 13.85 6.2L12.69 6.59C12.43 6.67 12.2 6.82 12.01 7.01C11.82 7.2 11.67 7.43 11.59 7.68L11.2 8.85C11.19 8.89 11.16 8.93 11.12 8.95C11.08 8.98 11.04 9 11 9C10.95 9 10.91 8.98 10.87 8.95C10.83 8.93 10.8 8.89 10.79 8.85L10.4 7.68C10.32 7.43 10.17 7.2 9.98 7.01C9.79 6.82 9.56 6.67 9.3 6.59L8.14 6.2C8.1 6.19 8.06 6.16 8.04 6.12C8.01 6.08 7.99 6.04 7.99 5.99C7.99 5.95 8.01 5.9 8.04 5.87C8.06 5.83 8.1 5.8 8.14 5.79L9.3 5.4C9.56 5.32 9.79 5.17 9.98 4.98C10.17 4.79 10.32 4.56 10.4 4.3L10.79 3.14ZM13.86 0.09C13.87 0.06 13.89 0.04 13.91 0.02C13.94 0.01 13.96 0 14 0C14.03 0 14.05 0.01 14.08 0.02C14.1 0.04 14.12 0.06 14.13 0.09L14.39 0.87C14.5 1.21 14.78 1.48 15.12 1.6L15.9 1.86C15.92 1.87 15.95 1.89 15.97 1.91C15.98 1.93 15.99 1.96 15.99 1.99C15.99 2.02 15.98 2.05 15.97 2.08C15.95 2.1 15.92 2.12 15.9 2.13L15.12 2.39C14.95 2.45 14.8 2.54 14.67 2.67C14.54 2.8 14.45 2.95 14.39 3.12L14.13 3.9C14.12 3.92 14.1 3.95 14.08 3.97C14.05 3.98 14.03 3.99 14 3.99C13.96 3.99 13.94 3.98 13.91 3.97C13.89 3.95 13.87 3.92 13.86 3.9L13.6 3.12C13.54 2.95 13.45 2.8 13.32 2.67C13.19 2.54 13.04 2.45 12.87 2.39L12.09 2.13C12.07 2.12 12.04 2.1 12.02 2.08C12.01 2.05 12 2.02 12 1.99C12 1.96 12.01 1.93 12.02 1.91C12.04 1.89 12.07 1.87 12.09 1.86L12.87 1.6C13.21 1.48 13.49 1.21 13.6 0.87L13.86 0.09L13.86 0.09Z" fill="#000000" fill-opacity="1.000000" fill-rule="nonzero"/>
</svg>
