<svg width="16.000000" height="16.000000" viewBox="0 0 16 16" fill="none" xmlns="http://www.w3.org/2000/svg" xmlns:xlink="http://www.w3.org/1999/xlink">
	<desc>
			Created with Pixso.
	</desc>
	<defs/>
	<path d="M8 11C7.2 11 6.44 10.68 5.87 10.12C5.31 9.55 5 8.79 5 8C5 7.2 5.31 6.44 5.87 5.87C6.44 5.31 7.2 5 8 5C8.79 5 9.55 5.31 10.12 5.87C10.68 6.44 11 7.2 11 8C11 8.79 10.68 9.55 10.12 10.12C9.55 10.68 8.79 11 8 11ZM8 12C9.06 12 10.07 11.57 10.82 10.82C11.57 10.07 12 9.06 12 8C12 6.93 11.57 5.92 10.82 5.17C10.07 4.42 9.06 4 8 4C6.93 4 5.92 4.42 5.17 5.17C4.42 5.92 4 6.93 4 8C4 9.06 4.42 10.07 5.17 10.82C5.92 11.57 6.93 12 8 12ZM8 0C8.13 0 8.25 0.05 8.35 0.14C8.44 0.24 8.5 0.36 8.5 0.5L8.5 2.5C8.5 2.63 8.44 2.75 8.35 2.85C8.25 2.94 8.13 3 8 3C7.86 3 7.74 2.94 7.64 2.85C7.55 2.75 7.5 2.63 7.5 2.5L7.5 0.5C7.5 0.36 7.55 0.24 7.64 0.14C7.74 0.05 7.86 0 8 0L8 0ZM8 13C8.13 13 8.25 13.05 8.35 13.14C8.44 13.24 8.5 13.36 8.5 13.5L8.5 15.5C8.5 15.63 8.44 15.75 8.35 15.85C8.25 15.94 8.13 16 8 16C7.86 16 7.74 15.94 7.64 15.85C7.55 15.75 7.5 15.63 7.5 15.5L7.5 13.5C7.5 13.36 7.55 13.24 7.64 13.14C7.74 13.05 7.86 13 8 13ZM16 8C16 8.13 15.94 8.25 15.85 8.35C15.75 8.44 15.63 8.5 15.5 8.5L13.5 8.5C13.36 8.5 13.24 8.44 13.14 8.35C13.05 8.25 13 8.13 13 8C13 7.86 13.05 7.74 13.14 7.64C13.24 7.55 13.36 7.5 13.5 7.5L15.5 7.5C15.63 7.5 15.75 7.55 15.85 7.64C15.94 7.74 16 7.86 16 8ZM3 8C3 8.13 2.94 8.25 2.85 8.35C2.75 8.44 2.63 8.5 2.5 8.5L0.5 8.5C0.36 8.5 0.24 8.44 0.14 8.35C0.05 8.25 0 8.13 0 8C0 7.86 0.05 7.74 0.14 7.64C0.24 7.55 0.36 7.5 0.5 7.5L2.5 7.5C2.63 7.5 2.75 7.55 2.85 7.64C2.94 7.74 3 7.86 3 8ZM13.65 2.34C13.75 2.43 13.8 2.56 13.8 2.69C13.8 2.82 13.75 2.95 13.65 3.05L12.24 4.46C12.19 4.51 12.14 4.54 12.08 4.57C12.01 4.59 11.95 4.61 11.88 4.61C11.75 4.61 11.62 4.55 11.53 4.46C11.48 4.41 11.45 4.36 11.42 4.3C11.4 4.24 11.38 4.17 11.38 4.11C11.38 3.97 11.44 3.85 11.53 3.75L12.95 2.34C13.04 2.24 13.17 2.19 13.3 2.19C13.43 2.19 13.56 2.24 13.65 2.34ZM4.46 11.53C4.55 11.62 4.61 11.75 4.61 11.88C4.61 12.02 4.55 12.14 4.46 12.24L3.04 13.65C2.95 13.74 2.82 13.79 2.69 13.79C2.56 13.79 2.44 13.74 2.34 13.65C2.25 13.55 2.2 13.43 2.2 13.3C2.2 13.17 2.25 13.04 2.34 12.95L3.75 11.53C3.85 11.44 3.97 11.38 4.11 11.38C4.24 11.38 4.37 11.44 4.46 11.53ZM13.65 13.65C13.56 13.75 13.43 13.8 13.3 13.8C13.17 13.8 13.04 13.75 12.95 13.65L11.53 12.24C11.44 12.14 11.39 12.02 11.39 11.89C11.39 11.76 11.44 11.63 11.54 11.54C11.63 11.44 11.75 11.39 11.89 11.39C12.02 11.39 12.14 11.44 12.24 11.53L13.65 12.95C13.75 13.04 13.8 13.17 13.8 13.3C13.8 13.43 13.75 13.56 13.65 13.65ZM4.46 4.46C4.37 4.55 4.24 4.61 4.11 4.61C3.97 4.61 3.85 4.55 3.75 4.46L2.34 3.05C2.29 3 2.25 2.94 2.23 2.88C2.2 2.82 2.19 2.76 2.19 2.69C2.18 2.62 2.2 2.56 2.22 2.5C2.25 2.43 2.29 2.38 2.33 2.33C2.38 2.28 2.43 2.25 2.5 2.22C2.56 2.2 2.62 2.18 2.69 2.19C2.76 2.19 2.82 2.2 2.88 2.23C2.94 2.25 3 2.29 3.04 2.34L4.46 3.75C4.51 3.8 4.54 3.85 4.57 3.91C4.59 3.98 4.61 4.04 4.61 4.11C4.61 4.17 4.59 4.24 4.57 4.3C4.54 4.36 4.51 4.41 4.46 4.46Z" fill="#000000" fill-opacity="1.000000" fill-rule="nonzero"/>
</svg>
