<svg width="38.000000" height="30.863037" viewBox="0 0 38 30.863" fill="none" xmlns="http://www.w3.org/2000/svg" xmlns:xlink="http://www.w3.org/1999/xlink">
	<desc>
			Created with Pixso.
	</desc>
	<defs/>
	<path d="M34.09 7.69C34.11 8.02 34.11 8.36 34.11 8.7C34.11 19 26.28 30.86 11.95 30.86C7.54 30.86 3.44 29.58 0 27.36C0.62 27.43 1.22 27.46 1.88 27.46C5.52 27.46 8.87 26.23 11.54 24.13C8.12 24.06 5.25 21.82 4.26 18.73C4.75 18.8 5.23 18.85 5.73 18.85C6.43 18.85 7.13 18.75 7.78 18.59C4.21 17.86 1.54 14.73 1.54 10.94L1.54 10.85C2.58 11.42 3.78 11.79 5.06 11.83C2.96 10.44 1.59 8.05 1.59 5.35C1.59 3.9 1.97 2.57 2.65 1.42C6.48 6.14 12.24 9.23 18.71 9.57C18.59 8.99 18.51 8.39 18.51 7.78C18.51 3.49 21.98 0 26.3 0C28.54 0 30.57 0.94 31.99 2.45C33.75 2.12 35.44 1.47 36.93 0.57C36.36 2.38 35.13 3.9 33.51 4.87C35.08 4.7 36.6 4.26 38 3.66C36.93 5.2 35.61 6.58 34.09 7.69Z" fill="#FFFFFF" fill-opacity="1.000000" fill-rule="nonzero"/>
</svg>
