<svg width="38.000000" height="22.573853" viewBox="0 0 38 22.5739" fill="none" xmlns="http://www.w3.org/2000/svg" xmlns:xlink="http://www.w3.org/1999/xlink">
	<desc>
			Created with Pixso.
	</desc>
	<defs/>
	<path id="Vector" d="M37.13 1.53C37.39 0.64 37.13 0 35.87 0L31.72 0C30.66 0 30.17 0.55 29.91 1.17C29.91 1.17 27.8 6.33 24.81 9.67C23.84 10.64 23.39 10.95 22.87 10.95C22.6 10.95 22.2 10.64 22.2 9.76L22.2 1.53C22.2 0.47 21.91 0 21.03 0L14.5 0C13.84 0 13.44 0.49 13.44 0.95C13.44 1.95 14.94 2.18 15.09 5L15.09 11.13C15.09 12.47 14.85 12.71 14.32 12.71C12.91 12.71 9.48 7.54 7.45 1.61C7.04 0.46 6.64 0 5.58 0L1.42 0C0.23 0 0 0.55 0 1.17C0 2.27 1.41 7.74 6.56 14.96C10 19.9 14.84 22.57 19.24 22.57C21.88 22.57 22.21 21.98 22.21 20.95C22.21 16.24 21.97 15.8 23.3 15.8C23.91 15.8 24.97 16.11 27.44 18.48C30.26 21.31 30.72 22.57 32.3 22.57L36.46 22.57C37.64 22.57 38.24 21.98 37.9 20.81C37.11 18.34 31.77 13.28 31.53 12.94C30.91 12.15 31.09 11.8 31.53 11.09C31.54 11.08 36.61 3.95 37.13 1.53Z" fill="#FFFFFF" fill-opacity="1.000000" fill-rule="nonzero"/>
</svg>
